<svg width="20" height="20" viewBox="0 0 20 20" fill="none" xmlns="http://www.w3.org/2000/svg">
<path fill-rule="evenodd" clip-rule="evenodd" d="M15 1.0415C15.3452 1.0415 15.625 1.32133 15.625 1.6665V18.1248C15.625 18.47 15.3452 18.7498 15 18.7498C14.6548 18.7498 14.375 18.47 14.375 18.1248V1.6665C14.375 1.32133 14.6548 1.0415 15 1.0415Z" fill="#1D5BFB"/>
<path fill-rule="evenodd" clip-rule="evenodd" d="M11.2248 14.5581C11.4689 14.314 11.8646 14.314 12.1087 14.5581L15.0001 17.4495L17.8915 14.5581C18.1356 14.314 18.5313 14.314 18.7754 14.5581C19.0194 14.8021 19.0194 15.1979 18.7754 15.4419L15.442 18.7753C15.1979 19.0194 14.8022 19.0194 14.5581 18.7753L11.2248 15.4419C10.9807 15.1979 10.9807 14.8021 11.2248 14.5581Z" fill="#1D5BFB"/>
<path fill-rule="evenodd" clip-rule="evenodd" d="M5 18.958C4.65482 18.958 4.375 18.6782 4.375 18.333L4.375 1.87467C4.375 1.5295 4.65482 1.24967 5 1.24967C5.34518 1.24967 5.625 1.5295 5.625 1.87467L5.625 18.333C5.625 18.6782 5.34518 18.958 5 18.958Z" fill="#1D5BFB"/>
<path fill-rule="evenodd" clip-rule="evenodd" d="M8.77544 5.44194C8.53136 5.68602 8.13563 5.68602 7.89155 5.44194L5.00016 2.55055L2.10877 5.44194C1.86469 5.68602 1.46896 5.68602 1.22489 5.44194C0.98081 5.19786 0.98081 4.80214 1.22489 4.55806L4.55822 1.22472C4.8023 0.980647 5.19803 0.980647 5.4421 1.22472L8.77544 4.55806C9.01952 4.80214 9.01952 5.19786 8.77544 5.44194Z" fill="#1D5BFB"/>
</svg>
