<svg width="24" height="25" viewBox="0 0 24 25" fill="none" xmlns="http://www.w3.org/2000/svg">
<path d="M21.9463 9.67901C21.8834 9.49388 21.7677 9.33121 21.6135 9.21107C21.4592 9.09094 21.2732 9.01861 21.0783 9.00301L15.3773 8.55001L12.9103 3.08901C12.8317 2.91313 12.7039 2.76374 12.5423 2.65887C12.3807 2.55401 12.1923 2.49815 11.9996 2.49805C11.807 2.49794 11.6184 2.55359 11.4567 2.65828C11.295 2.76296 11.1671 2.91221 11.0883 3.08801L8.62129 8.55001L2.92029 9.00301C2.72875 9.01819 2.54563 9.08822 2.39285 9.20475C2.24007 9.32127 2.12409 9.47934 2.05879 9.66004C1.99349 9.84075 1.98163 10.0364 2.02464 10.2237C2.06765 10.411 2.16369 10.5819 2.30129 10.716L6.51429 14.823L5.02429 21.275C4.97905 21.4703 4.99355 21.6747 5.06591 21.8617C5.13827 22.0486 5.26516 22.2095 5.4301 22.3235C5.59503 22.4374 5.79041 22.4991 5.99088 22.5007C6.19134 22.5022 6.38764 22.4434 6.55429 22.332L11.9993 18.702L17.4443 22.332C17.6146 22.4451 17.8155 22.5033 18.0199 22.4988C18.2243 22.4944 18.4225 22.4274 18.5877 22.3069C18.7529 22.1865 18.8773 22.0183 18.9441 21.8251C19.0109 21.6318 19.0169 21.4228 18.9613 21.226L17.1323 14.826L21.6683 10.744C21.9653 10.476 22.0743 10.058 21.9463 9.67901Z" fill="#EDB222"/>
</svg>
