<svg width="40" height="40" viewBox="0 0 40 40" fill="none" xmlns="http://www.w3.org/2000/svg">
<path fill-rule="evenodd" clip-rule="evenodd" d="M23.9905 15.6032C24.359 15.831 24.5833 16.2333 24.5833 16.6665V31.6665C24.5833 32.3569 24.0237 32.9165 23.3333 32.9165H16.6667C15.9763 32.9165 15.4167 32.3569 15.4167 31.6665V19.9998C15.4167 19.5264 15.6842 19.0935 16.1076 18.8818L22.7743 15.5485C23.1618 15.3547 23.622 15.3754 23.9905 15.6032ZM17.9167 20.7724V30.4165H22.0833V18.689L17.9167 20.7724Z" fill="#EDB222"/>
<path fill-rule="evenodd" clip-rule="evenodd" d="M2.08334 36.6665C2.08334 35.9761 2.64299 35.4165 3.33334 35.4165H36.6667C37.357 35.4165 37.9167 35.9761 37.9167 36.6665C37.9167 37.3569 37.357 37.9165 36.6667 37.9165H3.33334C2.64299 37.9165 2.08334 37.3569 2.08334 36.6665Z" fill="#1D5BFB"/>
<path fill-rule="evenodd" clip-rule="evenodd" d="M2.56408 20.6813C2.86747 20.4444 3.26309 20.3605 3.63651 20.4538L10.3032 22.1205C10.8596 22.2596 11.25 22.7596 11.25 23.3332V31.6665C11.25 32.3569 10.6904 32.9165 10 32.9165H3.33334C2.64299 32.9165 2.08334 32.3569 2.08334 31.6665V21.6665C2.08334 21.2816 2.26068 20.9181 2.56408 20.6813ZM4.58334 23.2675V30.4165H8.75001V24.3092L4.58334 23.2675Z" fill="#ED5F22"/>
<path fill-rule="evenodd" clip-rule="evenodd" d="M37.3238 8.93669C37.6924 9.16445 37.9167 9.56678 37.9167 10V31.6667C37.9167 32.357 37.357 32.9167 36.6667 32.9167H30C29.3096 32.9167 28.75 32.357 28.75 31.6667V13.3333C28.75 12.8599 29.0175 12.427 29.441 12.2153L36.1077 8.88197C36.4951 8.68822 36.9553 8.70893 37.3238 8.93669ZM31.25 14.1059V30.4167H35.4167V12.0225L31.25 14.1059Z" fill="#A0ED22"/>
<path fill-rule="evenodd" clip-rule="evenodd" d="M27.0833 3.3335C27.0833 2.64314 27.643 2.0835 28.3333 2.0835H36.6667C37.2464 2.0835 37.75 2.48209 37.8832 3.0463C38.0164 3.61052 37.7442 4.19227 37.2257 4.45153L10.559 17.7849C10.2921 17.9183 9.98631 17.9519 9.69683 17.8795L3.03016 16.2128C2.36042 16.0454 1.95322 15.3667 2.12066 14.697C2.28809 14.0272 2.96676 13.62 3.6365 13.7875L9.85457 15.342L31.3716 4.5835H28.3333C27.643 4.5835 27.0833 4.02385 27.0833 3.3335Z" fill="#1D5BFB"/>
</svg>
